<svg aria-label="오류 아이콘" xmlns="http://www.w3.org/2000/svg" width="42" height="42" viewBox="0 0 55 55">
    <g fill="none">
        <path d="M27.5 0A27.5 27.5 0 1 1 0 27.5 27.5 27.5 0 0 1 27.5 0z"/>
        <path fill="white" d="M27.5 2c-3.443 0-6.783.674-9.925 2.003-3.036 1.284-5.764 3.123-8.106 5.466-2.343 2.342-4.182 5.07-5.466 8.106C2.673 20.717 2 24.057 2 27.5c0 3.443.674 6.783 2.003 9.925 1.284 3.036 3.123 5.764 5.466 8.106 2.342 2.343 5.07 4.182 8.106 5.466C20.717 52.327 24.057 53 27.5 53c3.443 0 6.783-.674 9.925-2.003 3.036-1.284 5.764-3.123 8.106-5.466 2.343-2.342 4.182-5.07 5.466-8.106C52.327 34.283 53 30.943 53 27.5c0-3.443-.674-6.783-2.003-9.925-1.284-3.036-3.123-5.764-5.466-8.106-2.342-2.343-5.07-4.182-8.106-5.466C34.283 2.673 30.943 2 27.5 2m0-2C42.688 0 55 12.312 55 27.5S42.688 55 27.5 55 0 42.688 0 27.5 12.312 0 27.5 0z"/>
        <!-- 직선 부분 -->
        <path fill="none" stroke="white" stroke-width="4" d="M27.5 15 L27.5 35"/>
        <!-- 점 부분 -->
        <circle cx="27.5" cy="45" r="2" fill="white"/>
    </g>
</svg>