<svg width="34" height="34" viewBox="0 0 34 34" fill="none" xmlns="http://www.w3.org/2000/svg">
<g clip-path="url(#clip0_1_2241)">
<path d="M11.0013 23.3676H6.51758V16.1426H7.63957V22.3943H11.0028L11.0013 23.3676Z" fill="white" stroke="white" stroke-width="0.2" stroke-linejoin="round"/>
<path d="M12.4844 23.3676V16.1426H13.6064V23.3676H12.4844Z" fill="white" stroke="white" stroke-width="0.2" stroke-linejoin="round"/>
<path d="M17.6649 23.3676L15.0879 16.1426H16.3048L18.2712 22.1039H18.3024L20.2743 16.1426H21.4715L18.8931 23.3676H17.6649Z" fill="white" stroke="white" stroke-width="0.2" stroke-linejoin="round"/>
<path d="M27.5374 23.3676H22.9531V16.1426H27.5374V17.1087H24.0751V19.221H27.3532V20.1475H24.0751V22.3901H27.5374V23.3676Z" fill="white" stroke="white" stroke-width="0.2" stroke-linejoin="round"/>
<g opacity="0.901">
<g opacity="0.998">
<path d="M29.7496 9.34668H4.24961C2.37184 9.34668 0.849609 10.8689 0.849609 12.7467V26.9133C0.849609 28.7911 2.37184 30.3133 4.24961 30.3133H29.7496C31.6274 30.3133 33.1496 28.7911 33.1496 26.9133V12.7467C33.1496 10.8689 31.6274 9.34668 29.7496 9.34668Z" stroke="white" stroke-width="1.2" stroke-linecap="round" stroke-linejoin="round"/>
</g>
<g opacity="0.998">
<path d="M15.9451 9.20801L11.6172 4.95801" stroke="white" stroke-width="1.2" stroke-linecap="round" stroke-linejoin="round"/>
<path d="M17.9844 9.20801L22.3123 4.95801" stroke="white" stroke-width="1.2" stroke-linecap="round" stroke-linejoin="round"/>
</g>
</g>
</g>
<defs>
<clipPath id="clip0_1_2241">
<rect width="34" height="34" fill="white"/>
</clipPath>
</defs>
</svg>
