<svg width="15" height="15" viewBox="0 0 15 15" fill="none" xmlns="http://www.w3.org/2000/svg">
<g opacity="0.5">
<path d="M14.3176 14.9976C14.228 14.9977 14.1393 14.9801 14.0565 14.9457C13.9737 14.9114 13.8985 14.8611 13.8352 14.7976L0.199994 1.16361C0.0835488 1.03364 0.0213212 0.863999 0.0261051 0.689559C0.030889 0.515118 0.102321 0.34914 0.225715 0.225745C0.349109 0.102351 0.515088 0.0309195 0.689528 0.0261356C0.863968 0.0213517 1.03361 0.0835793 1.16358 0.200025L14.8001 13.8365C14.895 13.932 14.9596 14.0535 14.9857 14.1856C15.0117 14.3177 14.9981 14.4546 14.9466 14.579C14.895 14.7034 14.8077 14.8098 14.6958 14.8847C14.5839 14.9596 14.4523 14.9998 14.3176 15.0001V14.9976Z" fill="white"/>
<path d="M0.682399 14.9975C0.592777 14.9977 0.504017 14.98 0.421225 14.9457C0.338433 14.9114 0.263243 14.8611 0.19998 14.7976C0.0720687 14.6696 0.000213623 14.4961 0.000213623 14.3152C0.000213623 14.1342 0.0720687 13.9607 0.19998 13.8327L13.8365 0.200014C13.9653 0.076347 14.1374 0.00810219 14.316 0.00992322C14.4946 0.0117443 14.6653 0.0834861 14.7916 0.209754C14.9178 0.336022 14.9896 0.506755 14.9914 0.685315C14.9932 0.863876 14.925 1.03604 14.8013 1.16485L1.16357 14.8001C1.03569 14.9271 0.862622 14.9981 0.682399 14.9975Z" fill="white"/>
</g>
</svg>
