<svg width="14" height="14" viewBox="0 0 14 14" fill="none" xmlns="http://www.w3.org/2000/svg">
<g clip-path="url(#clip0_1_2110)">
<g opacity="0.301">
<path d="M7 14C10.866 14 14 10.866 14 7C14 3.13401 10.866 0 7 0C3.13401 0 0 3.13401 0 7C0 10.866 3.13401 14 7 14Z" fill="white"/>
<path d="M9.55303 9.99997C9.49432 10.0001 9.43617 9.98853 9.38194 9.96605C9.32771 9.94356 9.27846 9.91057 9.23703 9.86897L4.13103 4.76297C4.04725 4.67915 4.00018 4.56548 4.00018 4.44697C4.00018 4.32845 4.04725 4.21479 4.13103 4.13097C4.21485 4.04719 4.32852 4.00012 4.44703 4.00012C4.56554 4.00012 4.67921 4.04719 4.76303 4.13097L9.86903 9.23697C9.93151 9.29948 9.97406 9.37912 9.9913 9.46581C10.0085 9.5525 9.99968 9.64235 9.96586 9.72401C9.93204 9.80567 9.87477 9.87547 9.80129 9.92459C9.72781 9.97371 9.64142 9.99994 9.55303 9.99997Z" fill="black"/>
<path d="M4.44703 9.99997C4.38832 10.0001 4.33017 9.98853 4.27594 9.96605C4.22171 9.94356 4.17246 9.91057 4.13103 9.86897C4.04725 9.78515 4.00018 9.67148 4.00018 9.55297C4.00018 9.43445 4.04725 9.32079 4.13103 9.23697L9.23703 4.13097C9.32085 4.04719 9.43452 4.00012 9.55303 4.00012C9.67154 4.00012 9.78521 4.04719 9.86903 4.13097C9.95281 4.21479 9.99988 4.32845 9.99988 4.44697C9.99988 4.56548 9.95281 4.67915 9.86903 4.76297L4.76303 9.86897C4.7216 9.91057 4.67235 9.94356 4.61812 9.96605C4.56389 9.98853 4.50574 10.0001 4.44703 9.99997Z" fill="black"/>
</g>
</g>
<defs>
<clipPath id="clip0_1_2110">
<rect width="14" height="14" fill="white"/>
</clipPath>
</defs>
</svg>
