<svg aria-label="프로필 편집 아이콘" width="60" height="60" viewBox="0 0 60 60" fill="none" xmlns="http://www.w3.org/2000/svg">
<g clip-path="url(#clip0_1_1920)">
<path d="M10.27 41.8858L9.23438 51.0166H18.3364L45.1804 24.1726L36.0784 15.0706L10.27 41.8858ZM49.3792 19.9726C49.977 19.3751 50.4513 18.6656 50.7748 17.8848C51.0984 17.1039 51.265 16.2669 51.265 15.4216C51.265 14.5764 51.0984 13.7394 50.7748 12.9585C50.4513 12.1777 49.977 11.4682 49.3792 10.8706C48.7816 10.2728 48.0722 9.79855 47.2913 9.47498C46.5104 9.15141 45.6734 8.98486 44.8282 8.98486C43.9829 8.98486 43.1459 9.15141 42.3651 9.47498C41.5842 9.79855 40.8747 10.2728 40.2772 10.8706L38.6752 12.4726L47.7772 21.5746L49.3792 19.9726Z" fill="white"/>
</g>
<defs>
<clipPath id="clip0_1_1920">
<rect width="60" height="60" fill="white"/>
</clipPath>
</defs>
</svg>
