<svg width="30" height="30" viewBox="0 0 30 30" fill="none" xmlns="http://www.w3.org/2000/svg">
<g clip-path="url(#clip0_1_1179)">
<path d="M26.6173 30H3.38113C2.9368 30 2.49685 29.9124 2.08641 29.7422C1.67598 29.5719 1.3031 29.3225 0.98919 29.008C0.675281 28.6935 0.426498 28.3202 0.257007 27.9095C0.0875156 27.4988 0.000681303 27.0587 0.00147017 26.6143V3.38268C0.00127312 2.93853 0.0885486 2.49868 0.25838 2.08829C0.428211 1.67789 0.677306 1.30501 0.991296 0.99088C1.30529 0.676751 1.67802 0.42752 2.08834 0.257506C2.49866 0.0874928 2.93853 1.28739e-06 3.38268 1.3311e-06H26.6188C27.0632 -0.000393034 27.5033 0.0868454 27.914 0.256682C28.3247 0.426519 28.6978 0.675613 29.0121 0.989782C29.3264 1.30395 29.5757 1.67701 29.7457 2.0876C29.9157 2.49819 30.0032 2.93828 30.003 3.38268V26.6143C30.003 27.5111 29.6468 28.3711 29.0127 29.0052C28.3786 29.6393 27.5185 29.9955 26.6218 29.9955" fill="#CD1327"/>
<path d="M6.3557 25.3347V10.4239H4.70557L6.84471 4.66064H10.9834V25.3347H6.3557Z" fill="white"/>
<path d="M25 16.8638C24.9726 16.6387 24.9093 16.4194 24.8125 16.2143C24.7243 16.0367 24.5996 15.8798 24.4466 15.7538C24.2659 15.6091 24.0714 15.4824 23.866 15.3757L22.4859 14.7262L23.866 13.9942C24.2263 13.7951 24.5291 13.5062 24.745 13.1557C24.9419 12.7235 25.03 12.2496 25.0016 11.7756V5.11976C25.0016 4.99722 24.9529 4.87968 24.8662 4.79304C24.7796 4.70639 24.6621 4.65771 24.5396 4.65771H13.043C12.9205 4.65771 12.8029 4.70639 12.7162 4.79304C12.6296 4.87968 12.5809 4.99722 12.5809 5.11976V11.7756C12.5562 12.2447 12.6447 12.7129 12.8389 13.1406C13.051 13.4981 13.3544 13.7927 13.718 13.9942L15.0981 14.7262L13.718 15.3757C13.3164 15.5606 12.9882 15.8742 12.785 16.2668C12.6082 16.752 12.5301 17.2676 12.5555 17.7834V24.8712C12.5555 24.9938 12.6041 25.1113 12.6908 25.1979C12.7774 25.2846 12.8949 25.3332 13.0175 25.3332H24.5965C24.7191 25.3332 24.8366 25.2846 24.9232 25.1979C25.0098 25.1113 25.0585 24.9938 25.0585 24.8712V17.7834C25.0604 17.4759 25.0409 17.1686 25 16.8638ZM20.4548 21.0641C20.4548 21.1866 20.4062 21.3041 20.3195 21.3907C20.2329 21.4774 20.1154 21.5261 19.9928 21.5261H17.6167C17.4941 21.5261 17.3766 21.4774 17.29 21.3907C17.2033 21.3041 17.1547 21.1866 17.1547 21.0641V16.9268C17.1547 16.8043 17.2033 16.6868 17.29 16.6001C17.3766 16.5135 17.4941 16.4648 17.6167 16.4648H19.9928C20.1154 16.4648 20.2329 16.5135 20.3195 16.6001C20.4062 16.6868 20.4548 16.8043 20.4548 16.9268V21.0641ZM20.4548 12.5496C20.4548 12.6721 20.4062 12.7897 20.3195 12.8763C20.2329 12.963 20.1154 13.0116 19.9928 13.0116H17.6167C17.4941 13.0116 17.3766 12.963 17.29 12.8763C17.2033 12.7897 17.1547 12.6721 17.1547 12.5496V8.93143C17.1547 8.80889 17.2033 8.6914 17.29 8.60475C17.3766 8.5181 17.4941 8.46938 17.6167 8.46938H19.9928C20.1154 8.46938 20.2329 8.5181 20.3195 8.60475C20.4062 8.6914 20.4548 8.80889 20.4548 8.93143V12.5496Z" fill="white"/>
</g>
<defs>
<clipPath id="clip0_1_1179">
<rect width="30" height="30" fill="white"/>
</clipPath>
</defs>
</svg>
