<svg width="136" height="52" viewBox="0 0 136 52" fill="none" xmlns="http://www.w3.org/2000/svg">
<g id="Logo_2">
<path id="Path 4674" d="M48.9643 19.8633L42.221 40.2326C42.1791 40.3595 42.092 40.4676 41.9753 40.5374C41.8587 40.6073 41.7202 40.6344 41.5848 40.6137C41.4495 40.593 41.3262 40.526 41.2372 40.4247C41.1482 40.3234 41.0993 40.1945 41.0994 40.0613V19.8633H30.394V50.5648H50.0488L60.7211 19.864L48.9643 19.8633Z" fill="white"/>
<path id="Path 4675" d="M62.0948 19.8631H73.3547V50.564H62.0948V19.8631ZM0.5 29.0257H8.59543V50.5653H19.4866V29.0257H27.5813V19.8631H0.5V29.0257ZM48.9639 19.8644L42.2205 40.2338C42.1786 40.3606 42.0915 40.4687 41.9749 40.5386C41.8582 40.6085 41.7197 40.6355 41.5844 40.6149C41.449 40.5942 41.3257 40.5272 41.2367 40.4259C41.1477 40.3246 41.0988 40.1957 41.0989 40.0625V19.8631H30.3936V50.5646H50.0483L60.7206 19.8631L48.9639 19.8644ZM95.5527 19.8644V32.6919C95.553 32.8181 95.5093 32.9408 95.4287 33.0398C95.3482 33.1388 95.2355 33.2084 95.1091 33.2372C94.9827 33.266 94.85 33.2523 94.7326 33.1983C94.6152 33.1444 94.5201 33.0534 94.4627 32.9401L87.8047 19.8644H77.1647V50.566H87.5116V37.8088C87.5116 37.6828 87.5554 37.5605 87.6359 37.4617C87.7164 37.363 87.8289 37.2936 87.9551 37.2649C88.0812 37.2361 88.2137 37.2497 88.3309 37.3033C88.4481 37.357 88.5433 37.4477 88.6009 37.5605L95.2279 50.5646H105.869V19.8631L95.5527 19.8644ZM119.043 38.3106V31.6038C119.043 29.9069 119.737 28.6596 121.411 28.232C123.206 27.777 124.862 28.8871 125.425 30.7032L135.328 25.5468C131.425 18.6272 124.124 18.7216 121.201 18.9705C117.981 19.1617 114.908 20.3506 112.433 22.363C109.727 24.614 108.446 28.2862 108.446 32.1599V38.2063C108.446 43.9689 110.786 47.8124 114.821 50.0594C121.781 53.9324 131.55 51.2913 135.5 48.3678V33.632H125.275V42.83C123.825 43.3774 119.046 44.005 119.046 38.3093" fill="white"/>
<path id="Rectangle 4425" d="M88.2607 0.535156H96.2736V1.73024H88.2607V0.535156Z" fill="white"/>
<path id="Path 4676" d="M94.6775 2.8335L94.9747 1.68325V1.67188H93.5524L93.2525 2.8335H91.1476V1.67188H89.7542V2.8335H88.1626V3.99446H96.3771V2.8335H94.6775Z" fill="white"/>
<path id="Path 4677" d="M89.5502 8.80446H96.2736V6.08105H88.2607V7.238H94.9862V7.64751H88.2621V10.3823H96.3816V9.22802H89.5502V8.80446Z" fill="white"/>
<path id="Rectangle 4426" d="M87.7622 4.46582H96.7728V5.66157H87.7622V4.46582Z" fill="white"/>
<path id="Rectangle 4427" d="M110.23 0.535156H118.272V1.79716H110.23V0.535156Z" fill="white"/>
<path id="Path 4678" d="M114.909 5.22304V4.54052H118.377V3.30194H116.698L117.016 1.61035H115.606L115.277 3.30194H113.12V1.61035H111.726V3.30194H110.135V4.54052H113.46V5.22304H109.629V6.473H118.801V5.22304H114.909Z" fill="white"/>
<path id="Path 4679" d="M110.23 10.3843H118.272V6.98438H110.23V10.3843ZM111.576 8.16809H116.926V9.1999H111.576V8.16809Z" fill="white"/>
<path id="Path 4680" d="M53.2062 7.23535H51.7866V10.3837H59.9061V9.16114H53.2027L53.2062 7.23535Z" fill="white"/>
<path id="Path 4681" d="M58.3756 4.98391H59.7952V0.536133H51.7871V1.8249H58.3756V2.58303H51.7871V3.84905H58.3756V4.98391Z" fill="white"/>
<path id="Path 4682" d="M56.0377 5.52551V4.26953H54.6182V5.52551H51.2905V6.74803H60.2454V5.52551H56.0377Z" fill="white"/>
<path id="Path 4683" d="M66.4318 6.3486V5.05649L63.7159 5.24384V4.12772H66.0651V2.85033H63.7159V1.82587H66.2729V0.537109H62.2964V6.64569L66.425 6.34993L66.4318 6.3486Z" fill="white"/>
<path id="Path 4684" d="M67.5201 7.60599H68.928V0.37793H67.5195V2.85375H66.499V4.12779H67.5195L67.5201 7.60599Z" fill="white"/>
<path id="Rectangle 4428" d="M69.5049 0.331055H70.9244V7.87628H69.5049V0.331055Z" fill="white"/>
<path id="Path 4685" d="M64.0689 9.16098V7.13281H62.6494V10.3842H70.9657V9.16098H64.0689Z" fill="white"/>
<path id="Path 4686" d="M77.4635 3.01113L80.6287 7.44151L81.7586 6.56226L78.7998 2.54742H81.5521V1.2881H78.1674V0H76.6667V1.2881H73.3638V2.54943H76.1162L73.1787 6.55758L74.2941 7.43817L77.4635 3.01113Z" fill="white"/>
<path id="Rectangle 4429" d="M72.9316 9.12207H81.9994V10.3834H72.9316V9.12207Z" fill="white"/>
<path id="Path 4687" d="M105.469 4.16328H106.219V7.17441H107.612V0.329102H106.219V2.90195H105.467V0.374603H104.095V6.74482H105.467L105.469 4.16328Z" fill="white"/>
<path id="Path 4688" d="M103.393 6.35802V5.14687L100.485 5.32888V4.02673H103.28V0.535156H99.0913V1.73961H101.886V2.83098H99.0913V6.70463L103.393 6.35802Z" fill="white"/>
<path id="Path 4689" d="M103.572 6.87305H103.567L99.1494 9.56901L99.9414 10.6537L103.567 8.41408L107.179 10.6564L107.979 9.56634L103.572 6.87305Z" fill="white"/>
<path id="Path 4690" d="M43.2004 10.3908L41.6048 5.90355H41.4871V10.3908H39.8921V0.551758H41.4981L41.4871 4.91389H41.6048L43.1358 0.551758H44.8705L43.0504 5.32875L45.0631 10.3888L43.2004 10.3908Z" fill="white"/>
<path id="Rectangle 4430" d="M45.6987 4.7373H49.1633V5.96585H45.6987V4.7373Z" fill="white"/>
<path id="Rectangle 4431" d="M28.458 8.63086H30.064V10.3907H28.458V8.63086Z" fill="white"/>
<path id="Path 4691" d="M19.8233 3.31062V0.551758H21.333V10.3881H19.7696L18.187 4.42207H18.0907L18.1657 6.93134V10.3881H16.667V0.551758H18.401L19.8143 5.97581H19.921L19.8233 3.31062Z" fill="white"/>
<path id="Path 4692" d="M33.2795 0.520508V10.391H31.6969V2.84243H30.6372V1.90563C31.0404 1.92624 31.436 1.79315 31.7399 1.53462C32.0437 1.2761 32.232 0.912529 32.2645 0.521177L33.2795 0.520508Z" fill="white"/>
<path id="Path 4693" d="M27.3316 2.8992V8.04288C27.3316 9.5819 26.475 10.4893 24.955 10.4893C23.4239 10.4893 22.5996 9.58324 22.5996 8.04288V2.8992C22.5996 1.34813 23.435 0.452148 24.955 0.452148C26.486 0.452148 27.3316 1.34746 27.3316 2.8992ZM25.7077 2.64626C25.7077 2.13571 25.4187 1.81318 24.9797 1.81318C24.8726 1.81435 24.767 1.83762 24.6698 1.88144C24.5727 1.92526 24.4862 1.98864 24.416 2.06738C24.3459 2.14612 24.2938 2.23844 24.2631 2.33823C24.2324 2.43802 24.2238 2.54301 24.238 2.64626V8.28912C24.238 8.79968 24.538 9.1222 24.966 9.1222C25.0728 9.12066 25.1782 9.09712 25.275 9.05313C25.3718 9.00915 25.458 8.94572 25.5278 8.86702C25.5976 8.78832 25.6495 8.69613 25.68 8.59652C25.7106 8.49692 25.7191 8.39215 25.705 8.28912L25.7077 2.64626Z" fill="white"/>
</g>
</svg>
