<svg width="20" height="20" viewBox="0 0 20 20" fill="none" xmlns="http://www.w3.org/2000/svg">
<g clip-path="url(#clip0_362_4770)">
<path d="M10 11.875C11.0355 11.875 11.875 11.0355 11.875 10C11.875 8.96447 11.0355 8.125 10 8.125C8.96447 8.125 8.125 8.96447 8.125 10C8.125 11.0355 8.96447 11.875 10 11.875Z" fill="#ABABAB"/>
<path d="M10.0032 4.31348C8.15955 4.35927 6.36464 4.91487 4.81748 5.91865C3.27033 6.92244 2.03145 8.33517 1.23828 10.0001C1.99421 11.693 3.22412 13.1307 4.77954 14.1396C6.33496 15.1485 8.14927 15.6854 10.0032 15.6854C11.8572 15.6854 13.6715 15.1485 15.2269 14.1396C16.7823 13.1307 18.0124 11.693 18.7683 10.0001C17.9751 8.33517 16.7362 6.92244 15.1891 5.91865C13.6419 4.91487 11.8469 4.35927 10.0032 4.31348ZM10.0032 13.7193C9.26769 13.7191 8.5487 13.5009 7.93719 13.0921C7.32569 12.6833 6.84914 12.1024 6.56777 11.4228C6.2864 10.7432 6.21289 9.99545 6.35649 9.27406C6.50008 8.55267 6.85438 7.89005 7.37455 7.37C7.89472 6.84995 8.55742 6.49582 9.27885 6.35238C10.0003 6.20894 10.7481 6.28264 11.4276 6.56416C12.1071 6.84568 12.6879 7.32238 13.0965 7.93397C13.5051 8.54557 13.7232 9.2646 13.7232 10.0001C13.723 10.9866 13.3311 11.9326 12.6334 12.63C11.9358 13.3275 10.9897 13.7193 10.0032 13.7193Z" fill="#ABABAB"/>
</g>
<defs>
<clipPath id="clip0_362_4770">
<rect width="20" height="20" fill="white"/>
</clipPath>
</defs>
</svg>
