<svg width="20" height="20" viewBox="0 0 20 20" fill="none" xmlns="http://www.w3.org/2000/svg">
<g clip-path="url(#clip0_1_1776)">
<path d="M16.1183 6.63232L13.6108 9.13982C13.765 9.75743 13.7568 10.4044 13.5869 11.0179C13.417 11.6314 13.0912 12.1904 12.6412 12.6407C12.1912 13.0909 11.6322 13.417 11.0188 13.5873C10.4055 13.7576 9.75853 13.7662 9.14084 13.6123L7.4375 15.3157C8.26969 15.562 9.1329 15.6874 10.0008 15.6882C11.8443 15.6423 13.6393 15.0868 15.1864 14.0832C16.7336 13.0796 17.9725 11.6671 18.7658 10.0023C18.1092 8.71859 17.2101 7.57419 16.1183 6.63232Z" fill="#A6A6A6"/>
<path d="M16.6328 2.52002L13.9353 5.21669C12.7082 4.62453 11.3636 4.31581 10.0011 4.31335C8.15734 4.35918 6.3623 4.91479 4.81501 5.91856C3.26773 6.92233 2.02874 8.33504 1.23535 10C2.09674 11.6945 3.38706 13.1337 4.97782 14.1742L1.67201 17.48H3.3695L18.3295 2.52002H16.6328ZM10.0011 8.12502C9.68203 8.12301 9.36781 8.20297 9.08849 8.35725C8.80917 8.51153 8.57417 8.73495 8.40596 9.00611C8.23776 9.27728 8.14202 9.58709 8.1279 9.90587C8.11378 10.2247 8.18178 10.5417 8.32535 10.8267L6.99198 12.16C6.53059 11.5346 6.28122 10.7781 6.28031 10.0009C6.28031 9.01425 6.67226 8.06805 7.36989 7.37042C8.06753 6.67278 9.0137 6.28085 10.0003 6.28085C10.7772 6.28188 11.5334 6.53124 12.1586 6.99252L10.8253 8.32585C10.5698 8.19598 10.2877 8.12723 10.0011 8.12502Z" fill="#A6A6A6"/>
</g>
<defs>
<clipPath id="clip0_1_1776">
<rect width="20" height="20" fill="white"/>
</clipPath>
</defs>
</svg>
